<svg xmlns="http://www.w3.org/2000/svg" width="104.291" height="32.038" viewBox="0 0 104.291 32.038"><defs><style>.a,.b{fill:#fff;}.b{fill-rule:evenodd;}</style></defs><g transform="translate(-942.285 -520.057)"><path class="a" d="M1014.2,526.96a.709.709,0,0,1,.692.687l.091,17.446a5.922,5.922,0,0,1-.774,3.246c-.959,1.558-2.742,2.439-5.425,2.583a.711.711,0,0,1-.724-.647l-.11-1.874a.7.7,0,0,1,.666-.726,5.782,5.782,0,0,0,1.77-.277,1.872,1.872,0,0,0,1.336-1.7c.019-.19,0-2.208,0-2.208h-5.3a6.212,6.212,0,0,1-6.212-6.207v-9.663a.705.705,0,0,1,.689-.687h1.861a.7.7,0,0,1,.689.687l0,9.663a2.97,2.97,0,0,0,2.97,2.97h5.3l-.06-12.579a.705.705,0,0,1,.686-.693l1.861-.014Z" transform="translate(9.61 1.14)"/><path class="a" d="M950.049,543.886a5.037,5.037,0,0,1-3.99-1.476,6.107,6.107,0,0,1-1.258-4.094v-7.19a.318.318,0,0,0-.36-.359h-1.077a1.085,1.085,0,0,1-.792-.288,1.07,1.07,0,0,1-.287-.792v-.9a.995.995,0,0,1,1.079-1.079h1.077a.317.317,0,0,0,.36-.359v-2.517a.994.994,0,0,1,1.078-1.077h1.077a1,1,0,0,1,1.079,1.077v2.517a.317.317,0,0,0,.36.359h2.7a1,1,0,0,1,1.078,1.079v.9a1.066,1.066,0,0,1-.288.792,1.082,1.082,0,0,1-.79.288h-2.7a.318.318,0,0,0-.36.359v7.006a3.592,3.592,0,0,0,.469,1.98,2.138,2.138,0,0,0,1.869.719h.718a1.081,1.081,0,0,1,.79.286,1.068,1.068,0,0,1,.288.792v.9a.994.994,0,0,1-1.078,1.078Z" transform="translate(0 0.614)"/><path class="b" d="M960.19,540.675a4.84,4.84,0,0,0,2.048-.428,5.374,5.374,0,0,0,2.768-2.84,5.72,5.72,0,0,0,.4-2.121,5.462,5.462,0,0,0-.4-2.086,4.941,4.941,0,0,0-1.117-1.724,5.066,5.066,0,0,0-1.651-1.15,4.808,4.808,0,0,0-2.048-.434,5.052,5.052,0,0,0-2.086.434,5.7,5.7,0,0,0-1.652,1.15,5.281,5.281,0,0,0-1.08,1.724,5.481,5.481,0,0,0-.393,2.086,5.74,5.74,0,0,0,.393,2.121,5.385,5.385,0,0,0,1.08,1.689,5.7,5.7,0,0,0,1.652,1.151,5.087,5.087,0,0,0,2.086.428Zm0,3.057a8.543,8.543,0,0,1-3.308-.645,8.955,8.955,0,0,1-4.493-4.492,8.54,8.54,0,0,1-.647-3.309,8.257,8.257,0,0,1,.647-3.27,8.8,8.8,0,0,1,1.835-2.7,8.45,8.45,0,0,1,2.658-1.8,8.1,8.1,0,0,1,3.308-.683,7.844,7.844,0,0,1,3.27.683,8.277,8.277,0,0,1,4.495,4.494,7.834,7.834,0,0,1,.683,3.27,8.1,8.1,0,0,1-.683,3.309,8.447,8.447,0,0,1-1.8,2.658,8.839,8.839,0,0,1-2.7,1.834,8.267,8.267,0,0,1-3.27.645Z" transform="translate(1.569 1.125)"/><path class="b" d="M975.967,540.675a4.856,4.856,0,0,0,2.051-.428,5.182,5.182,0,0,0,1.653-1.151,5.1,5.1,0,0,0,1.111-1.689,5.677,5.677,0,0,0,.4-2.121,5.421,5.421,0,0,0-.4-2.086,5.008,5.008,0,0,0-1.111-1.724,5.179,5.179,0,0,0-1.653-1.15,4.823,4.823,0,0,0-2.051-.434,5.051,5.051,0,0,0-2.085.434,5.684,5.684,0,0,0-1.652,1.15,5.3,5.3,0,0,0-1.08,1.724,5.509,5.509,0,0,0-.4,2.086,5.771,5.771,0,0,0,.4,2.121,5.41,5.41,0,0,0,1.08,1.689,5.688,5.688,0,0,0,1.652,1.151,5.085,5.085,0,0,0,2.085.428Zm0,3.057a8.522,8.522,0,0,1-3.305-.645,8.946,8.946,0,0,1-4.492-4.492,8.475,8.475,0,0,1-.648-3.309,8.194,8.194,0,0,1,.648-3.27,8.735,8.735,0,0,1,1.834-2.7,8.356,8.356,0,0,1,2.658-1.8,8.085,8.085,0,0,1,3.305-.683,7.868,7.868,0,0,1,3.274.683,8.258,8.258,0,0,1,4.49,4.494,7.852,7.852,0,0,1,.684,3.27,8.119,8.119,0,0,1-.684,3.309,8.418,8.418,0,0,1-1.8,2.658,8.891,8.891,0,0,1-2.695,1.834,8.292,8.292,0,0,1-3.274.645Z" transform="translate(4.187 1.125)"/><path class="a" d="M988.574,544.5a4.1,4.1,0,0,1-3.344-1.258,5.314,5.314,0,0,1-1.007-3.415V521.135a1.088,1.088,0,0,1,.288-.794,1.075,1.075,0,0,1,.792-.284h1.078a.99.99,0,0,1,1.079,1.078v19.049a1.363,1.363,0,0,0,.322.936,1.278,1.278,0,0,0,.936.324h.36a.991.991,0,0,1,1.075,1.077v.9a1.073,1.073,0,0,1-.287.792,1.062,1.062,0,0,1-.788.287Z" transform="translate(6.959)"/><path class="a" d="M997.284,543.886a5.036,5.036,0,0,1-3.99-1.476,6.118,6.118,0,0,1-1.257-4.094v-7.19a.318.318,0,0,0-.361-.359H990.6a.995.995,0,0,1-1.08-1.08v-.9a.995.995,0,0,1,1.08-1.079h1.076a.317.317,0,0,0,.361-.359v-2.517a.994.994,0,0,1,1.076-1.077h1.081a1,1,0,0,1,1.077,1.077v2.517a.316.316,0,0,0,.359.359h2.7a1,1,0,0,1,1.08,1.079v.9a1.066,1.066,0,0,1-.288.792,1.085,1.085,0,0,1-.792.288h-2.7a.317.317,0,0,0-.359.359v7.006a3.614,3.614,0,0,0,.465,1.98,2.143,2.143,0,0,0,1.869.719h.721a1.084,1.084,0,0,1,.792.286,1.068,1.068,0,0,1,.288.792v.9a.994.994,0,0,1-1.08,1.078Z" transform="translate(7.838 0.614)"/><path class="a" d="M1018.544,547.734c.16,0,.277-.294.409-.57.934-1.931,3.058-6.452,3.058-6.452h6.885a2.66,2.66,0,0,0,2.661-2.661v-5.535a2.657,2.657,0,0,0-2.658-2.66l-7.7.007c-2.585,0-2.9.782-2.9,2.693l-.072,14.63c0,.318.022.547.321.547Zm-3.22-.557.072-14.63c0-4.2.959-5.582,5.8-5.582l7.7-.006a5.56,5.56,0,0,1,5.56,5.558v5.535a5.56,5.56,0,0,1-5.56,5.56h-4.876c-.688,1.086-2.684,5.334-3.139,5.918-2.007,2.576-5.558,1.566-5.558-2.353Z" transform="translate(12.119 1.145)"/></g></svg>